<svg width="100" height="31" viewBox="0 0 100 31" fill="none" xmlns="http://www.w3.org/2000/svg">
<path fill-rule="evenodd" clip-rule="evenodd" d="M43.8462 0.104004H0V30.104H43.8462L55.3846 15.104L43.8462 0.104004ZM19.6567 13.0752C19.5886 13.0207 19.5215 12.9662 19.4547 12.9121C19.286 12.7753 19.1199 12.6407 18.949 12.5116C18.4829 12.1558 17.9766 11.8725 17.3959 11.7462C16.7549 11.606 16.1076 11.5552 15.4681 11.7493C14.556 12.0249 13.9212 12.6255 13.5015 13.4618C13.1531 14.1579 13.0602 14.8956 13.1516 15.6625C13.2243 16.2631 13.4179 16.8206 13.7725 17.315C14.3176 18.0742 15.0608 18.5131 15.9899 18.6286C16.8261 18.7333 17.6359 18.6286 18.4024 18.2621C18.6641 18.1366 18.6641 18.1343 18.6641 17.8453V17.8401C18.6641 17.7697 18.6643 17.6995 18.6645 17.6294C18.6648 17.4894 18.6651 17.3491 18.6641 17.2087C18.6639 17.1805 18.6643 17.1564 18.6646 17.1359C18.6656 17.0774 18.666 17.0474 18.6512 17.0322C18.6355 17.0161 18.6028 17.0165 18.5356 17.0173C18.5187 17.0175 18.4997 17.0177 18.4783 17.0177H16.0472C16.0255 17.0177 16.0062 17.018 15.9892 17.0182C15.921 17.019 15.8878 17.0194 15.872 17.0031C15.857 16.9877 15.8577 16.9573 15.8589 16.8979C15.8593 16.8781 15.8598 16.8551 15.8598 16.8283C15.8588 16.1815 15.8591 15.5347 15.8595 14.8879C15.8597 14.5645 15.8598 14.241 15.8598 13.9176C15.8598 13.9059 15.8602 13.894 15.8605 13.8821C15.8612 13.858 15.8619 13.8335 15.8598 13.8098C15.8552 13.7529 15.8753 13.7221 15.9373 13.7282C15.9611 13.7303 15.9856 13.7296 16.0098 13.7289C16.0219 13.7286 16.0338 13.7282 16.0457 13.7282H22.1915C22.2318 13.7282 22.2658 13.7359 22.2597 13.7867C22.2569 13.8173 22.2762 13.8379 22.2959 13.8589C22.3199 13.8844 22.3445 13.9105 22.3309 13.9561C22.3191 13.9954 22.3221 14.0383 22.3251 14.0814C22.3264 14.1008 22.3278 14.1203 22.3278 14.1394L22.3277 15.2449C22.3274 16.7187 22.3272 18.1932 22.3309 19.6666C22.3309 19.7867 22.2937 19.8622 22.2024 19.9377C21.058 20.8848 19.7713 21.547 18.3157 21.875C17.4548 22.0691 16.583 22.123 15.7019 22.0521C14.6613 21.969 13.6719 21.7025 12.7583 21.1974C11.0813 20.2703 10.0252 18.8627 9.539 17.0254C9.32531 16.2138 9.26027 15.3868 9.3284 14.5521C9.5839 11.4567 11.761 9.0419 14.6784 8.37041C15.5114 8.17791 16.3523 8.15019 17.2008 8.20717C17.8512 8.25183 18.4907 8.35347 19.1163 8.53828C20.0531 8.81702 20.88 9.2975 21.6325 9.9135C21.7208 9.9859 21.8075 10.0583 21.8927 10.1322C22.0011 10.2246 22.0042 10.277 21.9097 10.3909C21.4359 10.9608 20.962 11.529 20.4867 12.0973C20.2497 12.3822 20.0128 12.6671 19.7744 12.9505C19.7682 12.9584 19.7622 12.9665 19.756 12.9748C19.7298 13.0102 19.7019 13.0478 19.6567 13.0752ZM31.7515 8.18092C33.5152 8.19478 35.2216 8.81542 36.654 10.1183C37.7658 11.1316 38.4471 12.3945 38.7196 13.8683C39.0231 15.5084 38.8048 17.0793 37.9903 18.5438C37.024 20.281 35.5499 21.3945 33.6267 21.8981C31.9714 22.3323 30.33 22.2446 28.7459 21.587C26.6834 20.7292 25.3502 19.1891 24.7246 17.0731C24.1656 15.1804 24.3684 13.3401 25.3687 11.6244C26.3427 9.952 27.8091 8.90474 29.6828 8.41654C30.3285 8.24868 30.937 8.18246 31.7515 8.18092ZM31.3334 11.703C30.3656 11.7246 29.3684 12.2759 28.7444 13.4263C28.3201 14.2071 28.221 15.0495 28.3821 15.9196C28.509 16.6065 28.8079 17.2148 29.3034 17.7138C30.0761 18.493 31.0222 18.7995 32.1061 18.6748C33.2272 18.5469 34.0603 17.974 34.5945 16.9899C35.0482 16.1522 35.1427 15.2559 34.9305 14.3334C34.5806 12.8026 33.2969 11.6984 31.3334 11.703Z" fill="#1B1D1F"/>
<path fill-rule="evenodd" clip-rule="evenodd" d="M99.8461 1H56V31H99.8461V1ZM70.3839 9.25994V15.8036V22.3164C70.3839 22.3303 70.3842 22.3442 70.3846 22.358C70.3852 22.3856 70.3859 22.413 70.3839 22.4396C70.3777 22.5151 70.3978 22.5597 70.4845 22.5474C70.5052 22.5454 70.5258 22.546 70.5465 22.5467C70.5568 22.5471 70.5671 22.5474 70.5774 22.5474C70.943 22.5474 71.3088 22.5476 71.6747 22.5478H71.6781C72.4098 22.5481 73.142 22.5484 73.8741 22.5474C73.8972 22.5474 73.9176 22.5477 73.9357 22.5479C74.0062 22.5488 74.0405 22.5492 74.0568 22.5323C74.0722 22.5163 74.0715 22.4847 74.0702 22.4233C74.0697 22.4026 74.0692 22.3784 74.0692 22.3503V9.27842C74.0692 9.26816 74.0689 9.25789 74.0685 9.24762C74.0678 9.22709 74.0672 9.20655 74.0692 9.18602C74.077 9.10902 74.0506 9.06898 73.967 9.07822C73.9506 9.08026 73.9334 9.07959 73.916 9.07891L73.9101 9.07868C73.9033 9.07843 73.8965 9.07822 73.8896 9.07822C73.5202 9.07822 73.1506 9.07805 72.781 9.07788C72.0413 9.07753 71.3011 9.07719 70.5619 9.07822C70.54 9.07822 70.5208 9.07793 70.5039 9.07768C70.443 9.07677 70.4123 9.07631 70.3971 9.09138C70.3819 9.10657 70.3824 9.13755 70.3833 9.19975C70.3836 9.21723 70.3839 9.23718 70.3839 9.25994ZM88.7394 9.07867H83.2424C81.4105 9.07867 79.5787 9.07867 77.7484 9.07713C77.7409 9.07713 77.7334 9.07718 77.7259 9.07725C77.7195 9.07731 77.7132 9.07739 77.7068 9.07747C77.6795 9.07781 77.6523 9.07815 77.6245 9.07713C77.5626 9.07405 77.5409 9.10331 77.5455 9.16029C77.5466 9.17769 77.5462 9.1944 77.5459 9.21134C77.5457 9.2199 77.5455 9.22851 77.5455 9.23729V12.3636L77.5454 12.396C77.5451 12.463 77.545 12.4961 77.5614 12.5122C77.5774 12.5279 77.6091 12.5276 77.6715 12.5271L77.7143 12.5268H81.1674C81.2802 12.5268 81.3359 12.5268 81.3635 12.5547C81.3904 12.5819 81.3904 12.6358 81.3904 12.7424V22.3815C81.3904 22.4 81.3902 22.4164 81.3899 22.431C81.3892 22.4862 81.3887 22.5153 81.403 22.5304C81.4186 22.5469 81.452 22.5468 81.5219 22.5464L81.5561 22.5463H81.6025H84.8698C84.9738 22.5463 85.0252 22.5463 85.0507 22.5206C85.0758 22.4953 85.0758 22.4453 85.0758 22.3461V12.707C85.0758 12.6862 85.0755 12.6678 85.0752 12.6515C85.0743 12.592 85.0738 12.5608 85.0891 12.5448C85.1056 12.5274 85.1407 12.5276 85.214 12.5281L85.26 12.5284H88.7751C88.9268 12.5284 88.9268 12.5284 88.9284 12.379V12.3328V9.26809C88.9284 9.2468 88.9286 9.22787 88.9288 9.21105C88.9296 9.14335 88.93 9.10955 88.9134 9.09308C88.897 9.07681 88.864 9.07726 88.7985 9.07816C88.7812 9.0784 88.7616 9.07867 88.7394 9.07867Z" fill="#1B1D1F"/>
</svg>
