<svg width="720" height="720" viewBox="0 0 720 720" fill="none" xmlns="http://www.w3.org/2000/svg">
<mask id="mask0_79631_48" style="mask-type:luminance" maskUnits="userSpaceOnUse" x="0" y="0" width="720" height="720">
<path d="M720 0H0V720H720V0Z" fill="white"/>
</mask>
<g mask="url(#mask0_79631_48)">
<path fill-rule="evenodd" clip-rule="evenodd" d="M360.735 641.695C262.984 642.844 154.028 623.492 101.283 547.199C50.1779 473.279 94.0696 381.299 122.897 297.677C150.148 218.626 176.696 133.327 256.763 96.1803C342.629 56.343 446.812 64.6213 530.249 108.687C612.371 152.057 665.089 231.267 677.078 318.159C688.474 400.763 650.287 479.751 589.956 541.454C530.268 602.499 449.617 640.65 360.735 641.695Z" fill="#9BDBFF"/>
<mask id="mask1_79631_48" style="mask-type:luminance" maskUnits="userSpaceOnUse" x="64" y="17" width="658" height="703">
<path d="M721.078 17H64.6707V720H721.078V17Z" fill="white"/>
</mask>
<g mask="url(#mask1_79631_48)">
<path d="M466.359 469.008C512.994 464.061 589.492 477.541 524.007 562.921C459.006 647.673 446.421 700.963 481.319 690.478C481.57 690.391 481.832 690.31 482.103 690.234C481.839 690.319 481.578 690.4 481.319 690.478C471.619 693.841 476.055 705.978 471.043 710.9C432.199 716.63 431.475 668.192 518.234 561.929C539.114 533.677 553.06 478.665 470.74 481.628L466.359 469.008Z" fill="#FFD500"/>
<path d="M461.144 452.945C513.838 441.778 571.321 437.389 512.754 538.571C454.788 638.716 516.277 631.224 555.366 614.581C555.736 614.403 556.138 614.23 556.573 614.061C556.173 614.235 555.77 614.409 555.366 614.581C545.741 619.194 557.399 626.522 552.658 632.437C509.082 643.493 438.728 640.124 505.916 538.205C524.389 504.821 559.465 451.05 465.313 464.474L461.144 452.945Z" fill="#005BBB"/>
<path d="M199.908 198.55C207.653 197.842 212.958 188.114 211.758 176.822C210.558 165.53 203.307 156.951 195.562 157.66C187.817 158.368 182.511 168.096 183.711 179.388C184.911 190.68 192.163 199.259 199.908 198.55Z" fill="#0D070C"/>
<path d="M349.952 157.549C342.863 160.528 333.025 154.564 327.979 144.229C322.933 133.893 324.589 123.1 331.679 120.12C338.768 117.141 348.605 123.105 353.651 133.44C358.697 143.776 357.041 154.57 349.952 157.549Z" fill="#0D070C"/>
<path fill-rule="evenodd" clip-rule="evenodd" d="M250.027 88.3394C223.215 95.327 174.558 119.282 194.424 159.202C207.741 185.963 200.779 198.024 193.253 211.061C186.745 222.333 179.817 234.336 185.214 257.204C190.115 277.974 200.309 290.826 210.484 303.653C224.464 321.28 238.41 338.861 238.534 376.881C238.706 429.431 280.341 568.545 301.138 631.534L399.82 607.001L250.027 88.3394ZM250.287 89.2415C277.272 82.8552 332.321 81.0296 336.631 124.817C339.506 154.024 356.118 162.473 373.495 171.311C388.68 179.034 404.452 187.055 412.145 209.49C419.344 230.479 414.242 245.967 409.127 261.493C402.52 281.551 395.891 301.671 415.742 333.794C443.914 379.384 482.828 519.175 498.763 583.371L400.081 607.903L250.287 89.2415Z" fill="white"/>
<path d="M252.281 305.943C237.953 317.248 212.424 311.235 195.261 292.511C178.097 273.788 175.797 249.444 190.125 238.139C204.452 226.834 229.981 232.847 247.145 251.571C264.309 270.294 266.608 294.638 252.281 305.943Z" fill="url(#paint0_radial_79631_48)"/>
<path d="M365.866 277.18C347.953 271.86 339.979 248.57 348.056 225.161C356.132 201.751 377.201 187.087 395.114 192.407C413.027 197.726 421.001 221.016 412.925 244.425C404.848 267.835 383.779 282.499 365.866 277.18Z" fill="url(#paint1_radial_79631_48)"/>
<path d="M469.622 476.832C406.533 523.231 309.958 536.157 270.207 530.628L276.952 552.252C368.401 570.362 447.266 523.429 476.282 498.278L469.622 476.832Z" fill="#005BBB"/>
<path d="M476.282 497.551C401.728 556.319 316.546 557.043 276.679 551.943L282.352 568.794C374.178 585.914 454.469 547.002 482.942 521.541L476.282 497.551Z" fill="#FFD500"/>
<path opacity="0.5" d="M336.536 141.548C339.981 142.057 343.473 138.398 344.336 133.375C345.198 128.352 343.104 123.867 339.659 123.358C336.213 122.849 332.721 126.508 331.859 131.531C330.996 136.554 333.09 141.039 336.536 141.548Z" fill="white"/>
<path opacity="0.5" d="M193.144 179.35C196.589 179.859 200.081 176.2 200.943 171.177C201.806 166.154 199.712 161.669 196.267 161.16C192.821 160.651 189.329 164.31 188.467 169.333C187.604 174.356 189.698 178.841 193.144 179.35Z" fill="white"/>
<path d="M382.498 567.081C209.798 598.273 246.827 815.428 286.928 920.107C488.909 981.407 865.836 1043.82 757.693 803.076C649.552 562.331 507.412 534.272 449.859 550.335L382.498 567.081Z" fill="white"/>
<path d="M224.924 205.277C203.68 143.269 265.566 116.651 265.515 117.495C335.469 117.495 345.229 173.069 345.229 181.653C345.229 205.277 390.438 214.921 385.245 240.83C380.052 266.739 394.029 314.539 393.945 350.331C393.894 372.265 387.05 381.97 381.237 385.453C382.942 385.044 382.254 385.302 380.575 385.825C379.046 386.631 377.612 387.009 376.422 387.074C377.968 386.619 379.482 386.166 380.575 385.825C380.794 385.71 381.015 385.586 381.237 385.453C378.995 385.99 372.618 387.677 358.921 391.425C320.292 401.995 304.185 355.243 255.012 309.46C205.839 263.677 251.476 282.786 224.924 205.277Z" fill="#FF6B0A"/>
<path d="M352.278 368.423C320.438 373.632 291.886 312.056 281.59 280.617C299.583 271.955 339.452 256.178 354.995 262.369C374.423 270.107 392.08 361.913 352.278 368.423Z" fill="#1F0C02"/>
<path d="M356.254 358.734C377.303 350.795 357.658 308.273 345.205 288.005L302.912 298.519C311.923 321.899 335.204 366.674 356.254 358.734Z" fill="#724B3B"/>
<path d="M349.271 343.505C352.906 339.405 333.697 297.271 323.639 276.717L314.613 279.948C324.652 302.842 345.637 347.604 349.271 343.505Z" fill="#6B3B28"/>
<path d="M261.917 259.404C270.935 212.691 252.041 192.735 241.468 188.596C262.568 140.425 306.974 154.426 326.539 167.447C313.47 214.201 322.563 177.136 356.712 235.839C384.03 282.801 353.271 308.719 334.478 315.808C306.535 316.471 252.901 306.118 261.917 259.404Z" fill="#ED5E00"/>
<path d="M365.412 256.111C297.502 205.705 274.021 260.784 270.768 294.624C278.953 306.124 303.403 326.439 335.729 315.696C368.056 304.953 368.987 271.496 365.412 256.111Z" fill="#FF8E3D"/>
<path d="M307.573 262.014C305.484 256.804 300.678 247.402 298.171 251.473C295.662 255.544 303.394 260.196 307.573 262.014Z" fill="#FD7411"/>
<path d="M318.536 259.307C316.624 254.039 313.977 243.927 318.688 245.625C323.399 247.323 320.55 255.454 318.536 259.307Z" fill="#FD7411"/>
<path d="M275.84 41.0159L293.47 85.7244C273.41 116.548 220.86 120.134 197.092 118.074L179.854 72.2755L275.84 41.0159Z" fill="#373500"/>
<path d="M293.47 85.7241C294.384 112.016 275.135 153.187 197.093 117.711L293.47 85.7241Z" fill="#373500"/>
<path d="M230.828 64.3276C257.428 55.8148 277.71 45.4652 276.128 41.2111C274.547 36.957 251.701 40.4094 225.1 48.9222C198.5 57.435 178.218 67.7846 179.8 72.0387C181.381 76.2928 204.228 72.8404 230.828 64.3276Z" fill="#373500"/>
<path d="M275.84 41.0159L293.47 85.7244C273.41 116.548 220.86 120.134 197.092 118.074L179.854 72.2755C179.854 72.2755 188.144 71.3111 193.174 69.7311C199.202 67.8379 207.67 62.8249 207.67 62.8249L249.199 94.0845V47.5586C249.199 47.5586 258.234 48.9458 263.695 47.5586C268.985 46.2146 275.84 41.0159 275.84 41.0159Z" fill="#4B4800"/>
<path d="M220.5 61.3971C220.801 61.4485 221.049 61.4771 221.281 61.5434C223.219 62.0396 224.644 62.9838 225.728 64.7334C226.186 65.4746 226.567 66.2814 226.976 67.0451C227.335 67.7222 227.689 68.3861 228.061 69.0577C228.159 69.2307 228.166 69.3209 227.977 69.437C227.567 69.6673 227.289 70.0406 227.287 70.5535C227.277 71.0082 227.488 71.3487 227.839 71.5636C228.196 71.7916 228.586 71.7718 228.966 71.6166C229.154 71.5325 229.247 71.3974 229.274 71.1682C229.503 69.4195 229.365 67.7113 228.91 66.0213C228.529 64.6245 227.897 63.34 227.322 62.0462C226.996 61.3071 226.691 60.5437 226.341 59.8158C226.126 59.3532 225.96 58.9001 225.888 58.3889C225.817 57.8777 225.848 57.3667 226.008 56.8447C226.476 57.0542 226.856 57.38 227.128 57.8015C227.377 58.2022 227.586 58.6516 227.772 59.0804C227.974 59.5486 228.114 60.045 228.285 60.5113C228.737 61.7522 229.177 62.9988 229.666 64.2229C230.495 66.2575 231.745 67.9473 233.433 69.2547C233.653 69.4355 233.854 69.4228 234.081 69.2898C234.66 68.9679 234.915 68.2789 234.679 67.6865C234.457 67.1337 233.795 66.8411 233.197 67.0785C232.979 67.1607 232.935 67.0874 232.887 66.8919C232.615 65.8805 232.325 64.8616 232.04 63.8558C231.729 62.7072 231.355 61.5866 231.369 60.3692C231.389 58.7609 231.852 57.4824 232.718 56.1464C232.784 56.0545 232.851 55.9626 232.945 55.8275C232.992 55.9459 233.023 56.0249 233.055 56.1039C235.092 61.1979 237.045 66.0812 239.082 71.1752C239.197 71.4648 239.197 71.4648 238.934 71.5826C237.947 72.0259 236.947 72.4747 235.96 72.918C235.785 72.9965 235.731 73.0829 235.767 73.284C236.037 74.8083 235.825 76.2696 235.085 77.6265C234.933 77.9117 234.829 78.2384 234.7 78.5444C233.864 78.1125 232.887 77.9921 232.09 77.4024C231.44 76.9182 230.848 76.3608 230.405 75.6591C230.3 75.5048 230.204 75.4858 230.054 75.5532C229.041 76.0076 228.041 76.4565 227.029 76.911C226.853 76.9895 226.762 76.9837 226.678 76.7731C224.63 71.6528 222.662 66.7299 220.614 61.6097C220.58 61.5945 220.558 61.5419 220.5 61.3971ZM222.537 63.2463C222.518 63.2707 222.48 63.2875 222.461 63.3119C222.497 63.4041 222.534 63.4962 222.571 63.5883C223.555 66.0498 224.46 68.3137 225.445 70.7752C225.608 71.1832 225.608 71.1832 226.008 71.0037C226.158 70.9363 226.217 70.8632 226.191 70.6884C226.147 70.1341 226.3 69.6308 226.617 69.2088C226.75 69.0249 226.728 68.8952 226.629 68.7222C226.153 67.8644 225.66 66.9991 225.222 66.1246C224.755 65.2161 224.271 64.5951 223.489 63.9679C223.177 63.7042 222.856 63.4912 222.537 63.2463ZM232.854 58.6625C232.829 58.6737 232.811 58.6661 232.786 58.6774C232.754 58.8163 232.721 58.9553 232.7 59.0886C232.529 60.0972 232.376 60.8954 232.625 61.8861C232.948 63.1381 233.297 64.3788 233.634 65.6252C233.671 65.7944 233.751 65.8828 233.937 65.9076C234.451 65.9726 234.892 66.1933 235.249 66.6074C235.414 66.7975 235.573 66.7884 235.871 66.5767C236.055 66.4475 235.917 66.3232 235.87 66.2047C234.87 63.7038 233.949 61.4003 232.944 58.8862C232.924 58.8016 232.893 58.7227 232.854 58.6625ZM229.223 72.7745C229.155 72.7894 229.074 72.8099 228.976 72.8229C228.115 72.9921 227.34 72.859 226.747 72.1156C226.662 72.014 226.592 71.9838 226.484 72.0474C226.397 72.0867 226.31 72.126 226.221 72.1652C226.096 72.2213 226.068 72.2964 226.12 72.4281C226.515 73.4153 226.915 74.4156 227.323 75.3972C227.343 75.4499 227.491 75.5235 227.54 75.501C228.222 75.2112 228.908 74.9026 229.579 74.5864C229.628 74.564 229.692 74.427 229.683 74.3687C229.533 73.8461 229.384 73.3235 229.223 72.7745ZM234.573 70.3731C234.834 70.8771 235.096 71.3493 235.352 71.8402C235.422 71.9793 235.522 71.9345 235.622 71.8896C236.259 71.6034 236.879 71.3097 237.522 71.0367C237.722 70.947 237.753 70.8399 237.661 70.6481C237.296 69.7718 236.957 68.8843 236.599 67.9892C236.435 67.5812 236.435 67.5812 236.048 67.7551C235.936 67.8056 235.836 67.8505 235.856 68.0121C235.941 68.8897 235.573 69.5522 234.961 70.0902C234.827 70.197 234.682 70.2775 234.573 70.3731ZM230.439 67.8507C230.494 69.0213 230.539 70.1656 230.37 71.3283C230.868 71.4308 231.336 71.5313 231.811 71.6131C231.877 71.6301 231.991 71.5477 232.037 71.4801C232.279 71.1237 232.483 70.7521 232.724 70.3956C232.798 70.2849 232.797 70.2078 232.687 70.1174C231.904 69.5221 231.243 68.7936 230.61 68.022C230.547 67.973 230.489 67.9053 230.439 67.8507ZM231.389 74.9847C231.613 75.6916 232.848 76.752 233.329 76.7379C233.336 76.7191 233.344 76.7004 233.344 76.7004C233.07 76.0159 232.809 75.3258 232.528 74.6601C232.506 74.6075 232.388 74.5678 232.333 74.5771C232.009 74.691 231.702 74.8445 231.389 74.9847ZM234.389 76.2929C234.795 75.7226 234.857 74.0336 234.559 73.5464C234.285 73.6698 233.984 73.8045 233.709 73.9279C233.546 74.0009 233.523 74.0891 233.586 74.2471C233.807 74.7999 234.028 75.3528 234.249 75.9056C234.285 76.0297 234.332 76.1481 234.389 76.2929ZM231.411 73.7485C231.574 73.6756 231.754 73.6102 231.906 73.5109C231.955 73.4885 232.014 73.3383 231.986 73.3044C231.678 72.7589 231.129 72.4158 230.551 72.5198C230.428 72.544 230.376 72.5984 230.399 72.7281C230.491 73.1059 230.595 73.4781 230.692 73.8691C230.733 74.0064 230.829 74.0254 230.941 73.9749C231.086 73.8944 231.248 73.8214 231.411 73.7485ZM233.711 72.7161C233.861 72.6488 233.999 72.587 234.149 72.5197C234.304 72.4655 234.365 72.3605 234.272 72.2006C234.102 71.8883 233.933 71.5761 233.752 71.2695C233.664 71.1227 233.573 71.1169 233.444 71.2369C233.027 71.5949 232.818 72.3253 233.011 72.8443C233.032 72.8969 233.156 72.9498 233.211 72.9405C233.391 72.8751 233.548 72.789 233.711 72.7161Z" fill="#FFD500"/>
<path d="M468.323 471C514.957 466.053 589.491 477.541 524.007 562.921C459.004 647.673 446.42 700.963 481.318 690.478C481.57 690.391 481.831 690.31 482.103 690.234C481.838 690.319 481.577 690.4 481.318 690.478C471.617 693.841 476.054 705.978 471.043 710.9C432.198 716.63 431.474 668.192 518.234 561.929C539.114 533.677 553.877 478.537 471.557 481.5L468.323 471Z" fill="#FFD500"/>
<path d="M462.934 455C515.628 443.833 571.321 437.389 512.754 538.571C454.788 638.716 516.277 631.224 555.365 614.581C555.736 614.403 556.138 614.23 556.573 614.061C556.173 614.235 555.77 614.409 555.365 614.581C545.741 619.194 557.399 626.522 552.657 632.437C509.082 643.493 438.728 640.124 505.916 538.205C524.388 504.821 556.168 449.5 466.707 462.5L462.934 455Z" fill="#005BBB"/>
</g>
</g>
<defs>
<radialGradient id="paint0_radial_79631_48" cx="0" cy="0" r="1" gradientUnits="userSpaceOnUse" gradientTransform="translate(221.203 272.041) rotate(47.4885) scale(45.991 32.9554)">
<stop stop-color="#FFBBBB"/>
<stop offset="1" stop-color="#FFBBBB" stop-opacity="0"/>
</radialGradient>
<radialGradient id="paint1_radial_79631_48" cx="0" cy="0" r="1" gradientUnits="userSpaceOnUse" gradientTransform="translate(380.49 234.793) rotate(109.035) scale(44.8383 33.8025)">
<stop stop-color="#FFBBBB"/>
<stop offset="1" stop-color="#FFBBBB" stop-opacity="0"/>
</radialGradient>
</defs>
</svg>
